Patient4_TMGait_0pt2_02_right_16_EMG.mot
version=1
nRows=29
nColumns=33
inDegrees=no
endheader
time	1LAddLong	2LGlutMax	3LGlutMed	4LIliopsoas	5LSemiMemb	6LBicFemLong	7LRecFem	8LVastMed	9LVastLat	10LGasMed	11LTibAnt	12lTibPost	13LPeroneusLong	14LSol	15LExtDigLong	16LFlexDigLong	17RAddLong	18RGlutMax	19RGlutMed	20RIliopsoas	21RSemiMemb	22RBicFemLong	23RRecFem	24RVastMed	25RVastLat	26RGasMed	27RTibAnt	28RTibPost	29RPeroneusLong	30RSol	31RExtDigLong	32RFlexDigLong
37.11	-0.016174	0.061035	0.043945	0.023956	-0.044708	0.064392	0.077057	0.018616	0.011749	-0.060425	0.015717	-0.01236	-0.036316	0.022736	0.038605	-0.00885	-0.000916	-0.00351	-0.009308	-0.045319	-0.040588	-0.12283	-0.031433	0.10971	-0.05249	-0.044098	-0.028381	0.002899	0.16556	0.016632	-0.001984	-0.018768
37.111	-0.026398	0.063171	0.13794	0.001984	-0.033875	0.077972	0.12344	0.019379	-0.040131	-0.072632	0.005341	0.006256	-0.015869	-0.002747	0.046997	0.003967	0.020142	0.050812	0.16403	-0.065765	0.067596	-0.15305	0.17349	0.066223	-0.034943	-0.005341	-0.10773	0.004883	0.2417	-0.048676	-0.00351	-0.01358
37.112	-0.02655	0.046234	0.07309	0.015259	0.038757	0.074615	0.094757	0.00946	0.005798	-0.043488	0.001068	0.008698	0.012817	-0.007935	0.047607	-0.002747	0.00351	-0.019073	-0.059967	-0.032043	0.08255	-0.061493	0.16205	0.07431	-0.060425	0.042267	-0.16327	0.00351	0.16357	0.081024	-0.002594	-0.012512
37.113	-0.013885	0.038452	0.12131	0.015717	0.078583	0.055847	0.051575	0.002899	0.057068	-0.055695	-0.003052	0.003204	-0.024567	-0.013428	0.036469	-0.003967	-0.01358	0.029907	-0.15274	0.02182	0.02182	0.03479	0.15015	0.17014	-0.088043	0.018616	-0.16754	0.003662	-0.070953	0.1828	-0.003815	-0.001984
37.114	-0.010681	0.037689	0.17059	-0.001526	0.003662	0.010223	0.030518	0.006409	0.04364	-0.065155	0.010071	0.006256	-0.073242	0.000916	0.03891	0.002441	-0.013733	0.075989	0.37369	0.072174	-0.1831	0.092316	0.052032	0.022125	-0.10971	0.009155	-0.16892	0.000305	-0.23331	0.023346	0	-0.012512
37.115	0.00473	0.00473	0.12238	-0.013885	-0.044098	-0.049591	-0.00351	-0.006561	0.029755	0.045471	0.001221	0.009918	-0.010834	0.019684	0.016022	0.005951	-0.030975	0.040436	0.27573	0.20828	0.048981	0.037079	-0.21729	0.054169	-0.025482	0.009766	-0.032654	-0.01236	-0.29175	-0.059662	-0.000763	-0.015869
37.116	0.010376	0.028992	0.072784	-0.005341	-0.040741	-0.070343	-0.039825	-0.00473	0.021973	0.18784	0.00061	0.005798	0.031891	0.000458	0.006714	0.001831	-0.011292	0.067902	0.23148	0.22125	0.15182	0.045929	-0.1564	0.079956	-0.027771	0.011902	0.093079	-0.005188	-0.17166	-0.12085	-0.003967	-0.023804
37.117	0.017395	0.063629	0.067291	0.016327	-0.028229	-0.090027	-0.094147	-0.006866	0.012207	0.224	0.002899	0.010376	0.074005	-0.001526	0.005341	-0.001526	0.018005	0.018921	0.32928	0.11795	0.14191	0.011292	-0.018616	0	-0.058441	0.015411	0.12421	-0.01297	0.036163	-0.13916	-0.002594	-0.018921
37.118	0.023804	-0.014038	0.090485	0.020599	0.069885	-0.10391	-0.07782	0.000153	0.04425	0.21545	0.018005	0.012665	0.079651	0.004578	0.002289	0.009613	0.025024	0.016022	0.2388	0.052643	0.052795	0.002441	-0.010681	-0.085449	-0.003357	-0.005798	0.12039	-0.00824	0.14114	-0.10895	-0.009003	-0.0177
37.119	0.020142	0.010223	0.066376	0.015869	0.089722	-0.074921	-0.041351	0.00473	0.063171	0.1181	0.006409	0.015564	0.06073	0.00351	0.014954	0.003967	0.018768	-0.027618	0.23972	0.006104	-0.11841	0.03479	-0.044098	0.012207	0.098877	-0.014954	0.14465	-0.014343	0.12787	-0.072021	0.000153	-0.02182
37.12	0.010529	0.004272	-0.015106	0.003052	0.054169	-0.021973	-0.029297	0.002136	0.055847	-0.097198	0.015717	0.017853	0.021515	-0.01358	0.002441	0.010529	0.024719	-0.022125	0.090942	0.010681	0.006104	0.014801	-0.085754	0.14069	0.11444	0.024414	0.19073	-0.008545	0.034943	0.036316	-0.001068	-0.015564
37.121	0.007324	0.000305	0.015411	-0.015411	0.015717	0.069733	0.001221	0.004578	0.010834	-0.17532	0.024567	0.015106	-0.015869	-0.019531	0.001526	0.013885	0.025024	-0.038605	0.030365	-0.007172	-0.14572	0.01709	0.009155	0.068817	0.031128	0.017853	0.14236	-0.014343	0	0.061798	-0.005188	-0.017242
37.122	0.002747	-0.000916	0.055389	-0.017548	-0.020142	0.072327	0.033722	0.018005	-0.027924	-0.099182	0.011292	0.014954	-0.019531	0.015106	-0.003967	0.010529	0.030212	-0.06546	0.22339	-0.088196	-0.27344	-0.007019	0.003967	-0.052032	0.003662	0.014801	0.12665	-0.013428	-0.019531	0.09613	-0.001984	-0.021362
37.123	-0.015717	0.030823	0.021362	-0.000458	-0.000305	0.056763	0.033264	0.019531	-0.046844	-0.069733	0.000153	0.015564	-0.006866	0.086823	0.002899	0.011444	0.006866	-0.046387	0.18127	-0.11063	-0.057831	-0.059662	0.025787	-0.11337	0.061646	0.011597	-0.00824	-0.010071	0.044861	0.014038	-0.000916	-0.011597
37.124	-0.019073	0.0177	-0.009918	0.021973	-0.038757	0.093079	-0.048828	0.026398	-0.037079	-0.046082	0.001068	0.019989	0.035858	0.044861	0.002899	0.017853	0.009766	-0.098724	-0.069122	-0.17609	0.3035	-0.033112	-0.14023	-0.12589	0.085144	0.020599	-0.32257	-0.011292	0.068207	0.014801	-0.001984	-0.010376
37.125	-0.034332	0.049896	-0.12604	0.014648	-0.10452	0.076599	0.009155	0.017548	0.004272	-0.036926	0.00885	0.014343	0.033722	-0.004883	0.000305	0.028534	0.013123	-0.082397	-0.066223	-0.22186	0.06485	-0.033417	-0.33386	-0.050812	0.039825	0.012512	-0.1767	-0.007019	0.017548	0.05188	-0.001678	-0.008545
37.126	-0.024872	0.067902	-0.16357	-0.006104	-0.15091	0.072479	0.007324	0.009766	-0.008545	-0.020752	0.007019	0.018463	0.034027	-0.059967	0.002441	0.02182	0.005493	-0.007477	0.08255	-0.11108	-0.28564	0.030518	-0.23468	0.005951	-0.005341	0.003204	-0.018311	-0.009003	-0.064545	0.002441	-0.002289	-0.00824
37.127	0.002136	0.063782	-0.069122	0.001526	-0.19348	-0.002899	-0.015106	0.00885	-0.006409	-0.007477	0.006866	0.02121	0.026093	-0.02594	0.001526	0.021057	0.005341	-0.003662	-0.087433	-0.088348	-0.25864	0.045166	-0.072479	0.055237	0.011902	-0.001678	0.028992	-0.013123	-0.19333	-0.044403	-0.000458	-0.001068
37.128	0.027313	0.079041	0.13672	0.006561	-0.16129	-0.11017	-0.063019	0.010681	0.009613	-0.023041	0.005798	0.009918	0.048676	-0.003357	0.00351	0.019989	0.018768	-0.029907	0.044861	-0.040283	-0.00946	-0.027771	-0.017853	-0.007782	-0.002747	-0.011597	0.029144	-0.010376	-0.27191	0.012665	-0.002136	-0.010071
37.129	0.050659	0.037842	0.27664	0.018005	-0.011749	-0.18234	-0.067139	0.001984	0.036926	0.018768	-0.004578	0.017242	0.033722	0.007935	0.005035	0.011902	-0.000305	-0.045624	-0.13016	0.1384	0.026093	-0.020294	-0.16739	0.07019	-0.009003	0.001984	0.012207	-0.015411	-0.30289	0.011444	0.004578	-0.009155
37.13	0.046844	-0.002899	0.18204	0.00824	0.21439	-0.14191	-0.008545	-0.006104	0.046539	0.003967	0.005646	0.017395	0.00473	0.008698	-0.000763	0.023499	-0.020599	-0.04425	0.046082	0.21454	0.21805	-0.017242	-0.36972	0.052795	0.050659	0.010986	0.053711	-0.021057	-0.054474	-0.039368	0.000305	-0.013428
37.131	0.034332	-0.017242	0.095978	0.002899	0.22507	-0.051422	0.023651	-0.009308	0.010376	-0.028229	0.008087	0.00824	-0.032196	0.003662	-0.003662	0.010681	-0.019836	-0.05188	-0.12482	0.15366	0.10086	-0.007477	-0.25909	0.02182	0.1474	0.003052	-0.0177	-0.019989	-0.19287	-0.23361	-0.00824	-0.016022
37.132	0.024109	-0.007019	0.1152	0.009003	0.14984	-0.017395	0.019684	-0.008545	-0.008392	-0.04425	0.017395	0.007172	-0.061188	0.018921	-0.007935	0.025177	-0.021973	-0.041809	0.50262	0.081635	0.056152	-0.027161	-0.14832	0.12161	0.31006	-0.004425	-0.043945	0.022583	-0.49545	-0.24658	-0.002594	-0.019836
37.133	0.02594	0.036011	0.076141	0.006256	0.07309	0.000305	-0.010986	-0.005798	0.014191	-0.038605	0.005341	0.007629	-0.037689	0.01297	-0.00351	0.016632	0.002136	-0.073395	0.74783	0.051422	0.073395	0.010986	-0.10361	0.044708	0.31616	-0.015869	-0.002747	0.021667	-0.23956	-0.11871	-0.005188	-0.011902
37.134	0.026703	0.044403	0.037842	-0.002136	0.022125	-0.020447	-0.046234	0.005035	0.02182	-0.02594	-0.000305	0.00946	-0.040894	0.028992	0.000458	0.024567	0.015259	-0.067902	0.26566	0.034485	0.072327	0.019684	-0.090637	0.007324	0.19409	-0.007019	-0.001678	-0.00824	-0.053711	-0.24231	-0.007324	-0.011597
37.135	0.01709	0.055847	0.042114	-0.008392	0.031433	-0.041504	-0.006104	0.006714	0.011597	-0.02243	0.012207	0.008392	-0.041504	0.046387	0.00824	0.00824	-0.01358	-0.063324	-0.20218	0.019989	0.003967	0.053253	-0.088806	0.013275	-0.1384	0.001068	0.036469	-0.032959	-0.076752	-0.38528	-0.002899	-0.015106
37.136	0.008698	0.018005	0.029449	-0.014343	0.048523	-0.018005	0.014648	0.011902	0.016785	-0.034485	0.005951	0.005646	0.01358	0.038757	0.014038	0.015259	0.007782	-0.09552	-0.18295	-0.0383	0.061188	0.13641	-0.088043	-0.034485	-0.50903	-0.02121	0.048523	-0.052032	0.82275	0.20554	-0.000916	-0.016327
37.137	-0.003815	0.044403	0.023193	0.014343	0.029144	-0.016632	-0.006866	0.020599	0.04837	-0.037689	0.000916	-0.005341	0.029144	0.034332	-0.000763	0.008698	0.00946	-0.037537	-0.10605	-0.11017	0.072327	0.11704	-0.044098	-0.072174	-0.20248	-0.019379	-0.034943	0.000305	0.82367	0.53513	-0.005188	-0.014648
37.138	-0.020752	0.017395	-0.010376	0.036926	-0.011292	0.012665	0.02243	0.019836	0.04715	-0.044861	0.005951	-0.001678	-0.007629	0.032806	0.006561	0.000153	0.013428	-0.006256	-0.074768	-0.14847	0.07782	0.017853	0.055237	-0.052643	-0.095673	-0.035706	-0.1593	0.00473	-0.046082	0.40802	-0.001984	-0.006409
